<svg width="514" height="555" viewBox="0 0 514 555" fill="none" xmlns="http://www.w3.org/2000/svg">
<path d="M321.87 127.839C323.555 124.747 325.524 121.818 327.753 119.09C334.39 112.453 341.386 106.098 348.476 99.8381C354.491 94.5395 361.581 94.5018 366.747 99.2535C371.914 104.005 371.461 109.888 365.918 115.168C359.197 122.128 352.022 128.635 344.44 134.647C340.366 137.152 335.481 137.983 330.807 136.966C327.055 135.891 324.887 131.158 321.87 127.839Z" fill="#F9E217"/>
<path d="M368.671 147.073C377.533 148.393 387.847 149.581 397.917 151.768C399.293 151.965 400.613 152.444 401.795 153.176C402.977 153.907 403.995 154.876 404.785 156.02C405.575 157.164 406.12 158.459 406.385 159.823C406.65 161.188 406.63 162.593 406.326 163.949C405.702 166.857 403.983 169.414 401.527 171.092C399.07 172.769 396.063 173.439 393.127 172.962C383.322 171.881 373.579 170.41 363.9 168.55C362.467 168.401 361.08 167.955 359.829 167.241C358.578 166.527 357.489 165.559 356.632 164.401C355.775 163.242 355.169 161.918 354.853 160.513C354.536 159.107 354.515 157.651 354.792 156.237C356.15 150.278 360.449 147.299 368.671 147.073Z" fill="#F9E217"/>
<path d="M283.29 77.1542C283.459 70.2339 286.759 66.1421 293.246 64.9354C299.732 63.7286 305.238 66.4439 306.898 72.1761C309.452 81.2138 311.404 90.4105 312.743 99.7062C313.61 105.665 309.764 109.851 303.126 111.02C296.489 112.189 291.209 109.549 289.475 103.779C286.816 94.747 285.175 85.4886 283.29 77.1542Z" fill="#F9E217"/>
<path d="M312.196 151.655C325.603 165.062 330.147 182.277 322.322 190.103C314.497 197.928 297.281 193.384 283.874 179.977C270.468 166.57 265.923 149.354 273.749 141.529C281.574 133.704 298.771 138.229 312.196 151.655Z" fill="black"/>
<path d="M333.24 192.837C321.285 204.792 298.884 200.417 281.159 182.692C263.434 164.967 259.06 142.566 271.014 130.611C282.969 118.657 305.37 122.994 323.114 140.737C340.858 158.481 345.214 180.863 333.24 192.837ZM284.666 144.263C282.083 146.847 283.969 158.198 294.811 169.04C305.653 179.883 317.005 181.768 319.588 179.185C322.171 176.602 320.286 165.213 309.462 154.389C298.639 143.566 287.287 141.718 284.704 144.301L284.666 144.263Z" fill="white"/>
<path d="M144.244 274.126L154.37 309.481L148.6 315.251L156.633 317.514L158.896 325.547L164.666 319.777L200.115 329.808C245.05 284.874 285.515 277.105 348.909 272.994L396.672 269.921L204.169 77.4181L201.058 125.332C196.947 188.726 189.179 229.191 144.244 274.126Z" fill="black"/>
<path d="M403.555 276.803C401.892 278.456 399.69 279.454 397.351 279.613L349.437 282.724C283.931 286.986 247.802 295.773 206.847 336.728C205.631 337.938 204.116 338.804 202.457 339.238C200.797 339.672 199.052 339.658 197.4 339.198L167.4 330.694L165.627 332.467C164.437 333.659 162.955 334.518 161.329 334.96C159.704 335.402 157.991 335.411 156.361 334.986C154.731 334.561 153.24 333.716 152.038 332.537C150.835 331.357 149.962 329.883 149.505 328.262L148.638 325.358L145.734 324.491C144.112 324.034 142.639 323.161 141.459 321.958C140.279 320.756 139.435 319.265 139.01 317.635C138.585 316.005 138.594 314.292 139.035 312.666C139.477 311.041 140.337 309.559 141.529 308.369L143.302 306.596L134.816 276.615C134.348 274.961 134.328 273.213 134.759 271.55C135.19 269.886 136.056 268.367 137.268 267.149C178.223 226.193 187.029 190.084 191.272 124.559L194.383 76.645C194.53 74.8086 195.196 73.0519 196.305 71.5803C197.413 70.1086 198.917 68.9827 200.641 68.3341C202.366 67.6855 204.239 67.541 206.042 67.9175C207.846 68.2939 209.505 69.1759 210.826 70.4602L403.479 263.114C405.286 264.931 406.299 267.39 406.295 269.953C406.292 272.516 405.272 274.972 403.46 276.785L403.555 276.803ZM197.268 319.079C244.936 273.522 290.116 267.224 348.193 263.453L374.837 261.7L212.447 99.3101L210.694 125.954C206.922 184.031 200.719 229.116 155.068 276.879L163.553 306.936C163.867 308.026 164.007 309.158 163.968 310.292C165.102 310.244 166.236 310.384 167.324 310.707L197.268 319.079Z" fill="white"/>
<path d="M136.155 253.478L27.0155 362.618L111.529 447.131L220.668 337.992L136.155 253.478Z" fill="#F9E217"/>
<path d="M227.457 344.855L118.355 453.957C116.544 455.768 114.089 456.785 111.529 456.785C108.969 456.785 106.513 455.768 104.703 453.957L20.1895 369.444C18.3791 367.633 17.3621 365.178 17.3621 362.618C17.3621 360.058 18.3791 357.602 20.1895 355.792L129.291 246.69C130.187 245.79 131.251 245.075 132.423 244.586C133.596 244.098 134.853 243.846 136.123 243.844C137.393 243.842 138.651 244.091 139.824 244.576C140.998 245.061 142.064 245.773 142.962 246.671L227.476 331.185C228.373 332.083 229.085 333.149 229.571 334.322C230.056 335.496 230.305 336.754 230.303 338.024C230.301 339.294 230.049 340.551 229.56 341.723C229.072 342.895 228.357 343.96 227.457 344.855ZM111.51 433.498L207.017 337.992L136.155 267.13L40.6673 362.618L111.51 433.498Z" fill="white"/>
<path d="M138.682 419.978L232.736 514.033L303.956 442.813L184.05 374.61L138.682 419.978Z" fill="black"/>
<path d="M310.782 449.639L239.562 520.859C238.668 521.759 237.604 522.472 236.433 522.96C235.261 523.447 234.005 523.697 232.736 523.697C231.468 523.697 230.211 523.447 229.04 522.96C227.869 522.472 226.805 521.759 225.91 520.859L131.856 426.804C130.045 424.994 129.028 422.539 129.028 419.978C129.028 417.418 130.045 414.963 131.856 413.152L177.224 367.784C178.719 366.29 180.663 365.327 182.758 365.045C184.853 364.762 186.983 365.175 188.82 366.219L308.746 434.441C310.037 435.174 311.141 436.196 311.972 437.426C312.803 438.657 313.338 440.063 313.535 441.535C313.732 443.006 313.587 444.504 313.109 445.91C312.631 447.316 311.835 448.592 310.782 449.639ZM232.736 500.381L288.174 444.944L185.671 386.641L152.334 419.978L232.736 500.381Z" fill="white"/>
</svg>
