<svg width="603" height="516" viewBox="0 0 603 516" fill="none" xmlns="http://www.w3.org/2000/svg">
<path d="M602.9 63.1001L542.667 63.1335V0.966797H514.8L514.833 63.1335L450.767 63.1668V91.0001L514.833 90.9668L514.867 153.133H542.7L542.667 90.9668H602.933L602.9 63.1001Z" fill="white"/>
<path d="M479.333 407.9H50.5333C48.6237 407.9 46.7924 407.141 45.4421 405.791C44.0918 404.441 43.3333 402.609 43.3333 400.7V125.167C43.3333 123.257 44.0918 121.426 45.4421 120.075C46.7924 118.725 48.6237 117.967 50.5333 117.967H479.333C480.29 117.949 481.241 118.122 482.13 118.476C483.019 118.83 483.828 119.357 484.511 120.028C485.194 120.698 485.736 121.498 486.106 122.38C486.476 123.262 486.667 124.21 486.667 125.167V400.7C486.667 401.657 486.476 402.604 486.106 403.486C485.736 404.369 485.194 405.168 484.511 405.839C483.828 406.509 483.019 407.037 482.13 407.391C481.241 407.744 480.29 407.918 479.333 407.9ZM57.7333 393.5H472.133V132.333H57.7333V393.5Z" fill="white"/>
<path d="M440 160H89.8999V365.833H440V160Z" fill="#F9E217"/>
<path d="M440 373.033H90.0001C88.0905 373.033 86.2592 372.275 84.9089 370.925C83.5586 369.574 82.8 367.743 82.8 365.833V160C82.8 158.091 83.5586 156.259 84.9089 154.909C86.2592 153.559 88.0905 152.8 90.0001 152.8H440C441.904 152.809 443.727 153.571 445.07 154.921C446.413 156.27 447.167 158.096 447.167 160V365.833C447.167 367.737 446.413 369.563 445.07 370.913C443.727 372.262 441.904 373.025 440 373.033ZM97.1001 358.633H432.767V167.233H97.1001V358.633Z" fill="white"/>
<path d="M522.533 478.433H7.3334C6.05333 478.433 4.79653 478.091 3.69248 477.443C2.58843 476.795 1.67705 475.865 1.05222 474.748C0.427397 473.63 0.111726 472.367 0.137715 471.087C0.163704 469.807 0.530414 468.557 1.20008 467.466L44.5334 396.933C45.1892 395.903 46.0962 395.057 47.1691 394.473C48.242 393.89 49.4456 393.59 50.6667 393.6H479.333C480.555 393.59 481.758 393.89 482.831 394.473C483.904 395.057 484.811 395.903 485.467 396.933L528.8 467.466C529.47 468.557 529.836 469.807 529.862 471.087C529.888 472.367 529.573 473.63 528.948 474.748C528.323 475.865 527.412 476.795 526.308 477.443C525.204 478.091 523.947 478.433 522.667 478.433H522.533ZM20.2001 464.033H509.667L475.3 407.9H54.5668L20.2001 464.033Z" fill="white"/>
<path d="M522.533 515.967H7.33332C6.37665 515.984 5.42604 515.811 4.53705 515.457C3.64806 515.103 2.83853 514.576 2.15576 513.905C1.47299 513.235 0.930675 512.435 0.560532 511.553C0.190389 510.671 -0.000163976 509.723 1.05876e-07 508.767V471.233C1.05876e-07 469.324 0.758579 467.492 2.10884 466.142C3.4591 464.792 5.29045 464.033 7.20001 464.033H522.533C524.443 464.033 526.274 464.792 527.625 466.142C528.975 467.492 529.733 469.324 529.733 471.233V508.767C529.733 509.712 529.547 510.648 529.185 511.522C528.823 512.395 528.293 513.189 527.625 513.858C526.956 514.526 526.162 515.057 525.289 515.418C524.415 515.78 523.479 515.967 522.533 515.967ZM14.5333 501.567H515.333V478.433H14.5333V501.567Z" fill="white"/>
</svg>
