<?xml version="1.0" standalone="no"?>
<!DOCTYPE svg PUBLIC "-//W3C//DTD SVG 20010904//EN"
 "http://www.w3.org/TR/2001/REC-SVG-20010904/DTD/svg10.dtd">
<svg version="1.0" xmlns="http://www.w3.org/2000/svg"
 width="342.000000pt" height="503.000000pt" viewBox="0 0 342.000000 503.000000"
 preserveAspectRatio="xMidYMid meet">

<g transform="translate(0.000000,503.000000) scale(0.100000,-0.100000)"
fill="#000000" stroke="none">
<path d="M2609 4996 c-37 -17 -100 -47 -140 -66 -41 -18 -130 -59 -198 -92
-67 -32 -125 -58 -127 -58 -2 0 -60 -27 -130 -60 -69 -33 -127 -60 -129 -60
-2 0 -54 -24 -116 -54 -188 -89 -289 -136 -379 -176 -47 -21 -123 -56 -170
-78 -47 -21 -155 -72 -240 -112 -85 -39 -178 -82 -206 -95 -46 -22 -119 -95
-95 -95 6 0 67 27 137 60 69 33 128 60 130 60 2 0 60 27 130 60 69 33 127 60
129 60 1 0 51 23 109 50 58 28 154 73 212 100 58 28 108 50 109 50 2 0 60 27
130 60 70 33 128 60 130 60 1 0 64 29 140 65 75 36 138 65 140 65 2 0 60 27
129 60 70 33 128 60 130 60 3 0 58 25 123 56 65 31 142 67 171 80 28 12 52 25
52 28 0 4 -24 6 -52 5 -39 0 -71 -9 -119 -33z"/>
<path d="M3230 4881 c-58 -26 -149 -69 -204 -95 -54 -25 -100 -46 -102 -46 -1
0 -64 -29 -139 -65 -75 -36 -138 -65 -140 -65 -2 0 -60 -27 -130 -60 -70 -33
-128 -60 -130 -60 -1 0 -56 -25 -120 -55 -64 -30 -171 -81 -238 -111 -67 -31
-169 -79 -226 -105 -57 -27 -104 -49 -106 -49 -1 0 -60 -27 -129 -60 -70 -33
-128 -60 -130 -60 -2 0 -50 -22 -107 -49 -133 -63 -354 -166 -693 -322 -198
-91 -271 -130 -279 -147 -6 -12 -7 -25 -4 -29 4 -3 105 39 224 95 120 55 317
146 438 202 121 56 283 131 360 167 77 36 165 77 195 91 30 13 135 62 233 108
99 46 180 84 182 84 1 0 52 23 111 51 60 28 134 62 164 76 30 14 102 48 159
74 57 27 105 49 106 49 2 0 56 25 121 56 66 31 146 69 179 84 33 15 94 43 135
63 77 36 151 70 255 117 186 84 201 93 180 101 -36 14 -59 9 -165 -40z"/>
<path d="M3200 4467 c-205 -97 -295 -139 -455 -212 -38 -18 -101 -47 -140 -65
-38 -18 -97 -45 -130 -60 -59 -27 -121 -56 -295 -138 -47 -21 -107 -50 -135
-62 -27 -12 -117 -54 -200 -92 -82 -39 -206 -96 -275 -128 -331 -153 -403
-187 -509 -236 -62 -30 -115 -54 -116 -54 -2 0 -60 -27 -129 -60 -70 -33 -128
-60 -130 -60 -3 0 -66 -29 -141 -65 -76 -36 -138 -65 -140 -65 -1 0 -46 -20
-99 -45 -73 -35 -99 -52 -107 -72 -5 -14 -8 -28 -6 -30 3 -2 57 21 122 52 64
30 118 55 120 55 2 0 83 38 182 84 180 84 249 116 358 166 33 15 94 43 135 62
226 106 369 173 405 188 22 10 74 34 116 53 227 106 397 185 509 237 222 102
406 188 505 235 53 25 98 45 99 45 3 0 77 34 291 135 68 32 213 99 308 142 70
32 77 38 77 64 0 16 -1 29 -2 28 -2 0 -100 -47 -218 -102z"/>
<path d="M3341 4129 c-125 -59 -293 -137 -376 -174 -27 -13 -90 -42 -140 -65
-49 -23 -146 -68 -215 -100 -69 -32 -165 -77 -215 -100 -49 -23 -108 -50 -130
-60 -22 -9 -104 -47 -183 -84 -259 -120 -426 -198 -487 -226 -33 -15 -94 -43
-135 -63 -41 -19 -106 -49 -145 -67 -38 -18 -117 -54 -173 -81 -57 -27 -105
-49 -107 -49 -2 0 -50 -22 -107 -49 -57 -27 -187 -87 -289 -134 -101 -47 -238
-110 -304 -141 -66 -31 -137 -64 -157 -74 -27 -12 -38 -23 -38 -39 0 -13 4
-23 9 -23 9 0 61 23 366 165 152 70 613 284 655 303 25 11 103 48 173 81 71
34 130 61 132 61 2 0 45 20 97 44 116 55 236 111 308 144 30 13 135 62 233
108 99 46 180 84 182 84 2 0 60 27 130 60 70 33 128 60 130 60 2 0 54 24 116
54 63 29 197 92 299 139 173 80 341 158 418 194 23 11 32 22 32 39 0 30 -1 30
-79 -7z"/>
<path d="M3355 3734 c-73 -35 -306 -144 -310 -144 -1 0 -64 -29 -140 -65 -75
-36 -138 -65 -140 -65 -2 0 -50 -22 -107 -49 -56 -27 -133 -63 -170 -80 -38
-17 -98 -45 -135 -62 -38 -18 -160 -74 -273 -127 -113 -52 -236 -109 -275
-127 -38 -18 -110 -51 -160 -75 -49 -23 -128 -59 -175 -80 -47 -21 -125 -57
-175 -80 -49 -23 -124 -58 -165 -77 -41 -20 -146 -69 -233 -109 -87 -41 -160
-74 -161 -74 -2 0 -65 -29 -141 -65 -75 -36 -138 -65 -140 -65 -2 0 -61 -28
-131 -61 -71 -34 -139 -65 -151 -70 -16 -6 -22 -16 -21 -34 3 -30 4 -30 54 -6
70 34 215 101 404 188 197 91 382 177 811 376 41 19 135 62 209 97 74 34 181
84 238 111 57 27 105 49 107 49 2 0 69 32 150 70 81 39 148 70 150 70 4 0 271
123 413 191 57 27 105 49 107 49 2 0 65 29 140 65 75 36 138 65 140 65 1 0 50
22 107 49 58 27 135 63 171 79 57 26 67 34 67 56 0 31 -2 31 -65 0z"/>
<path d="M3295 3304 c-66 -30 -142 -66 -170 -78 -72 -34 -350 -163 -415 -193
-30 -14 -89 -41 -130 -60 -102 -48 -193 -90 -265 -123 -33 -15 -94 -44 -136
-63 -249 -116 -388 -181 -499 -232 -165 -76 -505 -233 -1015 -470 -44 -21
-102 -48 -130 -60 -27 -13 -90 -42 -140 -65 -49 -23 -109 -51 -132 -61 -43
-18 -48 -25 -37 -52 7 -18 11 -16 208 77 65 31 119 56 121 56 2 0 60 27 130
60 70 33 128 60 130 60 2 0 69 32 150 70 81 39 148 70 150 70 3 0 36 15 329
152 278 130 301 140 341 158 43 19 262 121 444 206 62 30 115 54 117 54 2 0
60 27 130 60 69 33 128 60 129 60 2 0 61 27 132 61 70 33 148 70 173 81 25 11
68 31 95 43 332 155 401 187 408 194 5 5 7 18 5 29 -3 19 -11 17 -123 -34z"/>
<path d="M3247 2881 c-180 -84 -254 -118 -530 -248 -99 -45 -180 -83 -182 -83
-1 0 -49 -22 -106 -49 -57 -26 -135 -63 -174 -81 -38 -18 -101 -47 -140 -65
-38 -18 -126 -58 -195 -90 -69 -32 -176 -82 -239 -111 -62 -30 -115 -54 -117
-54 -1 0 -64 -29 -139 -65 -76 -36 -139 -65 -140 -65 -2 0 -60 -27 -130 -60
-70 -33 -128 -60 -130 -60 -1 0 -56 -25 -120 -55 -64 -30 -171 -81 -238 -111
-315 -146 -329 -153 -323 -170 3 -9 6 -18 6 -20 0 -10 27 0 145 56 70 33 128
60 130 60 1 0 52 23 111 51 60 28 152 72 204 96 52 25 133 62 180 83 92 41
170 77 354 164 65 31 119 56 121 56 2 0 83 38 182 84 98 46 203 95 233 108 62
29 308 143 415 193 39 18 153 71 255 118 102 47 238 110 304 141 65 31 120 56
121 56 2 0 64 29 138 64 74 35 144 67 156 71 15 4 21 15 21 36 0 16 -1 29 -2
28 -2 0 -78 -35 -171 -78z"/>
<path d="M3360 2532 c-31 -15 -94 -45 -140 -66 -47 -21 -157 -73 -245 -114
-175 -81 -258 -120 -350 -162 -33 -15 -96 -44 -140 -65 -266 -125 -418 -195
-421 -195 -2 0 -60 -27 -130 -60 -69 -33 -128 -60 -129 -60 -2 0 -61 -27 -132
-61 -70 -33 -148 -70 -173 -81 -73 -33 -168 -77 -289 -134 -62 -30 -115 -54
-116 -54 -2 0 -49 -22 -106 -49 -57 -27 -185 -86 -284 -131 -99 -45 -184 -86
-188 -90 -5 -4 -6 -17 -3 -28 8 -24 2 -26 230 82 65 31 120 56 121 56 2 0 65
29 140 65 76 36 139 65 141 65 1 0 76 34 166 76 90 42 190 89 223 104 33 15
94 43 135 63 41 19 107 49 145 67 39 18 108 51 155 72 47 22 108 50 135 63 28
12 79 36 115 53 36 16 160 74 275 127 116 53 239 111 275 127 199 94 543 253
593 275 50 23 57 29 57 54 0 16 -1 29 -2 28 -2 0 -28 -13 -58 -27z"/>
<path d="M3375 2136 c-16 -8 -79 -37 -138 -65 -59 -28 -110 -51 -111 -51 -2 0
-55 -24 -117 -54 -192 -90 -311 -146 -314 -146 -2 0 -45 -20 -97 -44 -51 -24
-118 -55 -148 -69 -55 -25 -308 -142 -430 -199 -36 -17 -92 -43 -125 -58 -33
-15 -94 -43 -135 -63 -62 -29 -782 -363 -980 -454 -67 -31 -62 -27 -54 -47 11
-28 12 -27 214 67 41 19 98 45 125 57 28 13 91 42 140 65 50 23 115 54 145 68
56 25 291 135 459 213 51 24 95 44 96 44 2 0 65 29 140 65 76 36 139 65 140
65 2 0 60 27 130 60 70 33 128 60 130 60 2 0 61 27 132 61 70 33 148 70 173
81 96 44 168 77 240 111 41 19 113 53 160 74 267 124 270 125 270 150 0 26 -4
27 -45 9z"/>
<path d="M3270 1686 c-74 -35 -179 -84 -234 -110 -54 -25 -100 -46 -101 -46
-2 0 -64 -29 -140 -65 -75 -36 -138 -65 -140 -65 -1 0 -45 -20 -96 -44 -161
-75 -387 -180 -579 -269 -102 -47 -228 -105 -280 -130 -52 -24 -124 -58 -160
-75 -36 -16 -110 -50 -165 -75 -144 -66 -347 -161 -370 -174 -19 -11 -19 -13
-3 -29 16 -16 20 -15 75 11 32 15 105 49 163 75 102 46 362 166 600 278 36 16
130 60 210 97 80 37 196 92 259 121 62 30 114 54 116 54 2 0 43 19 92 41 48
23 117 55 153 71 36 17 112 53 169 79 57 27 105 49 106 49 2 0 83 38 182 84
98 46 204 95 236 109 47 22 57 31 57 52 0 14 -3 25 -7 25 -5 -1 -69 -29 -143
-64z"/>
<path d="M3395 1342 c-6 -5 -64 -32 -130 -62 -66 -29 -166 -75 -222 -102 -57
-26 -151 -70 -209 -98 -58 -27 -107 -50 -109 -50 -2 0 -49 -22 -106 -49 -57
-26 -189 -88 -294 -136 -104 -48 -237 -109 -293 -136 -57 -27 -105 -49 -107
-49 -1 0 -52 -23 -111 -51 -60 -28 -174 -82 -254 -119 -258 -120 -242 -111
-228 -127 17 -21 45 -13 173 47 61 29 128 60 150 70 22 10 93 44 158 74 65 31
120 56 122 56 1 0 49 22 106 49 200 94 451 211 454 211 2 0 54 24 116 53 140
66 341 159 604 281 183 84 200 94 203 119 3 27 -6 34 -23 19z"/>
<path d="M3322 905 c-52 -25 -95 -45 -97 -45 -3 0 -237 -107 -385 -177 -41
-20 -118 -56 -170 -80 -52 -25 -138 -64 -190 -88 -52 -24 -140 -64 -195 -90
-55 -26 -125 -58 -155 -72 -56 -26 -144 -67 -307 -143 -51 -24 -90 -46 -88
-50 15 -25 58 -18 152 26 123 58 203 95 273 127 53 24 548 254 700 324 184 86
362 168 445 205 103 46 118 57 113 87 -3 20 -7 19 -96 -24z"/>
<path d="M3350 517 c-36 -17 -137 -64 -225 -105 -88 -41 -202 -94 -254 -118
-51 -24 -95 -44 -96 -44 -2 0 -59 -26 -127 -58 -67 -32 -157 -74 -198 -93 -41
-18 -100 -46 -130 -60 l-55 -27 45 -7 c37 -5 54 -2 95 18 45 23 381 179 525
244 63 29 135 63 270 125 52 25 123 57 158 73 55 25 62 31 62 56 0 16 -1 29
-2 28 -2 0 -32 -15 -68 -32z"/>
<path d="M3405 142 c-6 -5 -54 -28 -107 -52 -54 -24 -96 -46 -93 -48 2 -3 52
8 110 23 102 27 105 29 105 57 0 30 -1 32 -15 20z"/>
</g>
</svg>
