<svg width="292" height="361" viewBox="0 0 292 361" fill="none" xmlns="http://www.w3.org/2000/svg">
<path d="M0.818237 312.08V45.4045C0.818237 33.4698 5.55928 22.0239 13.9984 13.5847C22.4376 5.1456 33.8835 0.404541 45.8182 0.404541H193.743C205.678 0.404541 217.124 5.1456 225.563 13.5847C234.002 22.0239 238.743 33.4698 238.743 45.4045V312.08C238.743 324.014 234.002 335.46 225.563 343.899C217.124 352.338 205.678 357.08 193.743 357.08H45.9682C40.0461 357.099 34.1784 355.95 28.7014 353.697C23.2244 351.445 18.246 348.133 14.0514 343.952C9.85688 339.772 6.52879 334.804 4.25795 329.335C1.98711 323.866 0.818204 318.002 0.818237 312.08ZM227.493 45.4045C227.48 36.4708 223.925 27.9068 217.608 21.5897C211.291 15.2725 202.727 11.7178 193.793 11.7045H45.9682C37.0345 11.7178 28.4705 15.2725 22.1533 21.5897C15.8362 27.9068 12.2814 36.4708 12.2682 45.4045V312.08C12.2814 321.013 15.8362 329.577 22.1533 335.894C28.4705 342.212 37.0345 345.766 45.9682 345.78H193.893C202.827 345.766 211.391 342.212 217.708 335.894C224.025 329.577 227.58 321.013 227.593 312.08L227.493 45.4045Z" fill="white"/>
<path d="M0.818245 312.08V70.6796C0.850925 69.1963 1.46322 67.7848 2.52397 66.7474C3.58472 65.71 5.00954 65.1293 6.49324 65.1296H233.168C234.669 65.1296 236.109 65.7241 237.172 66.783C238.236 67.8418 238.837 69.2789 238.843 70.7796V312.18C238.837 313.68 238.236 315.117 237.172 316.176C236.109 317.235 234.669 317.83 233.168 317.83H6.49324C5.74163 317.83 4.9975 317.68 4.30404 317.391C3.61058 317.101 2.98163 316.676 2.45366 316.141C1.9257 315.606 1.50924 314.972 1.2285 314.274C0.947751 313.577 0.808312 312.831 0.818245 312.08ZM12.1682 76.3546V306.355H227.493V76.3546H12.1682Z" fill="white"/>
<path d="M94.0683 40.1297C94.0683 39.3856 94.2152 38.6488 94.5007 37.9617C94.7862 37.2746 95.2046 36.6506 95.7319 36.1257C96.2592 35.6007 96.885 35.185 97.5734 34.9026C98.2618 34.6201 98.9992 34.4764 99.7432 34.4797H139.943C141.38 34.5752 142.727 35.2133 143.711 36.2647C144.694 37.3161 145.242 38.7022 145.242 40.1422C145.242 41.5821 144.694 42.9682 143.711 44.0196C142.727 45.071 141.38 45.7091 139.943 45.8047H99.7432C98.9971 45.808 98.2576 45.6634 97.5676 45.3794C96.8776 45.0954 96.2507 44.6775 95.723 44.1499C95.1954 43.6223 94.7775 42.9953 94.4935 42.3053C94.2095 41.6153 94.065 40.8759 94.0683 40.1297Z" fill="white"/>
<path d="M148.193 136.68C138.493 136.68 126.093 144.38 119.818 150.855C113.568 144.38 101.168 136.68 91.4682 136.68C72.4432 136.68 60.6682 152.105 60.6682 171.13C60.6682 198.255 106.543 228.455 119.818 235.33C132.943 228.63 178.993 198.255 178.993 171.13C178.993 152.105 167.218 136.68 148.193 136.68Z" fill="#F9E217"/>
<path d="M119.818 241.005C118.948 240.99 118.093 240.776 117.318 240.38C104.467 233.334 92.4497 224.864 81.4933 215.13C63.9933 199.33 55.0183 184.555 55.0183 171.205C55.0183 147.955 70.3433 131.08 91.4683 131.08C101.693 131.08 112.743 137.455 119.818 143.255C126.918 137.455 137.968 131.08 148.193 131.08C169.318 131.08 184.668 147.955 184.668 171.205C184.668 184.555 175.718 199.355 158.118 215.18C147.225 224.943 135.246 233.423 122.418 240.455C121.609 240.846 120.717 241.035 119.818 241.005ZM91.4683 142.355C88.0225 142.261 84.5995 142.94 81.4503 144.342C78.301 145.743 75.5054 147.832 73.2683 150.455C68.5762 156.304 66.1212 163.634 66.3433 171.13C66.3433 180.98 74.2183 193.255 89.0683 206.63C98.5624 215.05 108.872 222.503 119.843 228.88C136.068 219.78 173.318 192.805 173.318 171.13C173.536 163.639 171.092 156.313 166.418 150.455C164.175 147.833 161.375 145.745 158.222 144.344C155.069 142.942 151.642 142.263 148.193 142.355C140.693 142.355 129.693 148.805 123.893 154.855C123.366 155.403 122.733 155.838 122.033 156.135C121.332 156.431 120.579 156.583 119.818 156.58C119.062 156.579 118.313 156.426 117.618 156.13C116.922 155.833 116.293 155.4 115.768 154.855C108.318 147.105 97.3433 142.355 91.4683 142.355Z" fill="white"/>
<path d="M221.343 334.68L190.268 303.58C185.915 299.238 182.985 293.675 181.868 287.63L179.368 273.905C178.802 270.832 177.311 268.006 175.093 265.805L136.343 227.03C134.809 225.497 133.591 223.677 132.761 221.674C131.93 219.671 131.503 217.523 131.503 215.355C131.503 213.186 131.93 211.039 132.761 209.035C133.591 207.032 134.809 205.212 136.343 203.68C137.876 202.145 139.696 200.928 141.699 200.097C143.702 199.267 145.85 198.839 148.018 198.839C150.187 198.839 152.334 199.267 154.338 200.097C156.341 200.928 158.161 202.145 159.693 203.68C160.793 204.78 182.193 224.305 183.193 223.205L192.118 214.255C195.023 211.362 198.956 209.737 203.056 209.737C207.156 209.737 211.088 211.362 213.993 214.255L216.043 216.305L221.793 210.53C224.83 207.502 228.943 205.802 233.231 205.802C237.519 205.802 241.632 207.502 244.668 210.53C247.518 207.685 251.38 206.088 255.406 206.088C259.432 206.088 263.294 207.685 266.143 210.53L306.143 250.53C311.288 255.657 315.344 261.771 318.068 268.505L324.918 285.405C326.003 288.084 326.272 291.025 325.694 293.857C325.116 296.69 323.716 299.289 321.668 301.33L272.893 350.13C270.882 352.141 268.331 353.525 265.549 354.116C262.766 354.706 259.873 354.476 257.218 353.455L240.218 346.905C233.146 344.185 226.718 340.021 221.343 334.68Z" fill="black"/>
<path d="M262.493 360.13C259.998 360.125 257.525 359.668 255.193 358.78L238.168 352.23C230.357 349.215 223.264 344.6 217.343 338.68L186.268 307.63C181.101 302.475 177.615 295.878 176.268 288.705L173.768 274.98C173.415 273.028 172.472 271.231 171.068 269.83L132.293 231.055C128.133 226.894 125.795 221.251 125.795 215.367C125.795 209.483 128.133 203.84 132.293 199.68C136.454 195.519 142.097 193.182 147.981 193.182C153.865 193.182 159.508 195.519 163.668 199.68C165.418 201.405 176.668 211.58 182.318 216.055L188.093 210.28C191.717 206.656 196.532 204.47 201.646 204.13C206.759 203.79 211.822 205.318 215.893 208.43L217.768 206.555C221.249 203.089 225.794 200.894 230.673 200.323C235.552 199.751 240.481 200.837 244.668 203.405C248.656 201.023 253.324 200.04 257.934 200.611C262.544 201.181 266.831 203.273 270.118 206.555L310.118 246.555C315.79 252.231 320.262 258.99 323.268 266.43L330.118 283.33C331.626 287.037 332.006 291.108 331.21 295.03C330.414 298.953 328.477 302.553 325.643 305.38L276.893 354.13C273.078 357.958 267.899 360.116 262.493 360.13ZM147.943 204.505C145.796 204.503 143.698 205.139 141.912 206.331C140.127 207.523 138.735 209.218 137.914 211.202C137.092 213.185 136.877 215.367 137.296 217.473C137.715 219.578 138.75 221.512 140.268 223.03L179.043 261.78C182.065 264.804 184.096 268.675 184.868 272.88L187.368 286.605C188.289 291.522 190.677 296.045 194.218 299.58L225.293 330.655C230.082 335.461 235.833 339.201 242.168 341.63L259.168 348.18C260.801 348.805 262.58 348.947 264.291 348.587C266.003 348.228 267.574 347.384 268.818 346.155L317.568 297.38C318.827 296.128 319.687 294.532 320.038 292.792C320.39 291.052 320.218 289.247 319.543 287.605L312.693 270.705C310.264 264.675 306.641 259.199 302.043 254.605L262.043 214.605C260.258 212.825 257.839 211.825 255.318 211.825C252.797 211.825 250.379 212.825 248.593 214.605C248.068 215.134 247.443 215.555 246.754 215.842C246.066 216.129 245.327 216.277 244.581 216.277C243.835 216.277 243.096 216.129 242.407 215.842C241.719 215.555 241.094 215.134 240.568 214.605C239.595 213.63 238.44 212.857 237.168 212.33C235.896 211.802 234.533 211.531 233.156 211.531C231.779 211.531 230.415 211.802 229.144 212.33C227.872 212.857 226.716 213.63 225.743 214.605L219.968 220.355C219.443 220.884 218.818 221.305 218.129 221.592C217.441 221.879 216.702 222.027 215.956 222.027C215.21 222.027 214.471 221.879 213.782 221.592C213.094 221.305 212.469 220.884 211.943 220.355L209.918 218.33C209.01 217.418 207.931 216.695 206.742 216.201C205.554 215.708 204.28 215.454 202.993 215.454C201.706 215.454 200.432 215.708 199.244 216.201C198.056 216.695 196.976 217.418 196.068 218.33L187.118 227.255C186.024 228.324 184.572 228.95 183.043 229.01C181.514 229.07 180.018 228.56 178.843 227.58C177.993 227.055 176.968 226.305 175.643 225.28C173.618 223.705 170.918 221.455 167.643 218.58C162.043 213.58 156.318 208.455 155.593 207.73C154.594 206.714 153.403 205.906 152.09 205.353C150.778 204.799 149.368 204.511 147.943 204.505Z" fill="white"/>
</svg>
