<svg width="389" height="426" viewBox="0 0 389 426" fill="none" xmlns="http://www.w3.org/2000/svg">
<path d="M233.809 249.797L142.024 153.213C132.931 143.644 129.975 128.63 140.123 118.986L154.189 106.612L145.698 58.3959L196.372 67.8213L205.591 59.6954C215.739 50.0513 231.486 49.9856 240.579 59.5541L332.364 156.138C341.457 165.706 340.59 181.43 330.441 191.074L268.739 249.71C258.591 259.354 242.902 259.365 233.809 249.797Z" fill="black"/>
<path d="M228.92 251.794L137.452 155.544C134.535 152.47 132.252 148.852 130.734 144.896C129.217 140.94 128.494 136.724 128.607 132.488C128.72 128.252 129.667 124.08 131.394 120.211C133.121 116.342 135.593 112.85 138.67 109.937L149.079 100.045L138.127 55.7132C137.932 54.9241 137.948 54.0972 138.176 53.3167C138.403 52.5362 138.834 51.8299 139.423 51.2699C140.012 50.7098 140.74 50.3159 141.531 50.1284C142.322 49.9409 143.149 49.9663 143.927 50.2022L187.687 63.356L198.111 53.45C204.31 47.5734 212.587 44.3953 221.126 44.6128C229.665 44.8304 237.77 48.4258 243.662 54.6105L335.13 150.861C341.006 157.06 344.185 165.337 343.967 173.876C343.749 182.416 340.154 190.52 333.969 196.412L274.529 252.899C271.461 255.821 267.849 258.111 263.896 259.637C259.944 261.163 255.73 261.895 251.495 261.793C247.26 261.69 243.086 260.754 239.213 259.039C235.339 257.323 231.842 254.861 228.92 251.794ZM149.004 61.3519L158.603 100.486C158.802 101.275 158.787 102.104 158.561 102.886C158.335 103.668 157.905 104.376 157.315 104.938L145.021 116.621C140.603 120.827 138.033 126.613 137.875 132.712C137.717 138.81 139.984 144.722 144.178 149.151L235.646 245.401C239.856 249.816 245.645 252.381 251.743 252.533C257.842 252.686 263.752 250.414 268.177 246.216L327.618 189.729C332.035 185.524 334.603 179.738 334.758 173.642C334.914 167.545 332.644 161.637 328.446 157.212L236.978 60.9619C232.774 56.5449 226.988 53.9769 220.892 53.8216C214.795 53.6663 208.886 55.9364 204.462 60.1335L192.095 71.8856C191.501 72.4403 190.772 72.8299 189.981 73.0158C189.189 73.2016 188.363 73.1771 187.584 72.9448L149.004 61.3519Z" fill="white"/>
<path d="M203.347 155.553L220.425 139.323C224.61 135.346 225.523 132.106 223.162 129.604C222.448 128.772 221.511 128.162 220.461 127.844C219.412 127.527 218.294 127.516 217.238 127.812C213.954 129.019 211.008 130.996 208.646 133.577L194.887 146.652L184.623 135.851L227.624 94.9871L237.888 105.788L231.77 111.602C229.015 114.22 225.717 117.078 221.904 120.122L222.332 120.571C224.626 120.047 227.023 120.192 229.239 120.987C231.401 121.896 233.34 123.263 234.923 124.994C236.438 126.404 237.643 128.114 238.462 130.015C239.28 131.916 239.694 133.967 239.678 136.037C239.297 140.304 237.238 144.246 233.952 146.996L213.655 166.284L203.347 155.553Z" fill="white"/>
<path d="M259.531 136.373C260.146 135.689 260.905 135.149 261.753 134.791C262.601 134.434 263.517 134.268 264.436 134.305C266.471 134.873 268.314 135.982 269.769 137.514C271.225 139.045 272.238 140.942 272.702 143.003C272.697 143.918 272.491 144.82 272.098 145.646C271.706 146.472 271.136 147.202 270.43 147.784C267.255 150.801 263.857 150.389 260.164 146.504C256.472 142.618 256.356 139.39 259.531 136.373ZM230.927 184.662L220.649 173.847L251.993 144.06L262.271 154.876L230.927 184.662Z" fill="white"/>
<path d="M260.997 187.678L252.331 178.559L277.049 152.31L288.388 164.241L260.997 187.678ZM241.421 186.443C242.092 185.711 242.91 185.13 243.823 184.739C244.735 184.347 245.72 184.155 246.713 184.173C248.889 184.401 250.892 185.466 252.296 187.145C253.872 188.608 254.807 190.636 254.897 192.785C254.858 193.776 254.613 194.748 254.176 195.638C253.739 196.529 253.121 197.318 252.36 197.955C251.694 198.678 250.881 199.25 249.976 199.635C249.071 200.019 248.094 200.206 247.111 200.183C244.993 199.979 243.036 198.96 241.652 197.342C240.085 195.865 239.148 193.839 239.038 191.688C239.026 190.692 239.233 189.706 239.645 188.8C240.057 187.893 240.663 187.089 241.421 186.443Z" fill="white"/>
<path d="M221.165 369.58L233.532 357.828L279.862 371.74L268.327 324.762L280.679 313.024C283.31 310.52 285.421 307.522 286.892 304.201C288.363 300.88 289.164 297.301 289.25 293.67C289.336 290.039 288.705 286.426 287.393 283.039C286.081 279.652 284.113 276.557 281.604 273.932L190.191 177.739C185.145 172.429 178.196 169.342 170.873 169.155C163.55 168.968 156.453 171.699 151.143 176.745L91.7023 233.232C86.3923 238.278 83.3044 245.227 83.1178 252.55C82.9313 259.873 85.6614 266.97 90.7075 272.28L182.12 368.472C184.611 371.109 187.597 373.229 190.908 374.711C194.218 376.194 197.788 377.01 201.413 377.113C205.039 377.216 208.65 376.603 212.039 375.311C215.428 374.018 218.529 372.071 221.165 369.58Z" fill="#F9E217"/>
<path d="M178.728 371.696L87.3151 275.504C81.4384 269.304 78.2603 261.028 78.4779 252.488C78.6954 243.949 82.2908 235.845 88.4755 229.953L147.916 173.465C154.115 167.589 162.392 164.411 170.932 164.628C179.471 164.846 187.575 168.441 193.467 174.626L284.88 270.818C290.763 277.016 293.946 285.295 293.731 293.838C293.516 302.381 289.921 310.49 283.734 316.384L273.31 326.29L284.346 370.652C284.542 371.441 284.525 372.268 284.297 373.049C284.07 373.829 283.639 374.535 283.05 375.096C282.461 375.656 281.734 376.049 280.942 376.237C280.151 376.425 279.325 376.399 278.547 376.163L234.786 363.038L224.376 372.93C221.3 375.85 217.678 378.134 213.717 379.653C209.757 381.171 205.536 381.894 201.296 381.78C197.056 381.665 192.881 380.715 189.008 378.985C185.135 377.255 181.642 374.778 178.728 371.696ZM186.827 180.936C182.623 176.519 176.837 173.951 170.741 173.796C164.644 173.64 158.735 175.91 154.311 180.107L94.8704 236.595C90.4534 240.8 87.8854 246.585 87.7301 252.682C87.5748 258.778 89.8449 264.687 94.042 269.111L185.455 365.303C189.657 369.725 195.443 372.297 201.541 372.452C207.639 372.607 213.549 370.334 217.971 366.132L230.294 354.421C230.885 353.861 231.614 353.468 232.407 353.282C233.2 353.096 234.027 353.123 234.806 353.362L273.4 364.941L263.801 325.807C263.609 325.017 263.627 324.191 263.852 323.41C264.078 322.629 264.505 321.921 265.089 321.355L277.441 309.617C281.846 305.409 284.403 299.627 284.553 293.538C284.703 287.448 282.433 281.548 278.24 277.128L186.827 180.936Z" fill="white"/>
<path d="M228.763 316.257C226.644 318.27 223.975 319.61 221.094 320.108C218.214 320.605 215.25 320.236 212.579 319.049C209.908 317.862 207.649 315.91 206.087 313.438C204.525 310.967 203.732 308.089 203.806 305.166C203.88 302.244 204.82 299.41 206.505 297.021C208.191 294.633 210.546 292.798 213.275 291.748C216.003 290.699 218.981 290.482 221.833 291.125C224.684 291.768 227.281 293.242 229.295 295.361C231.995 298.203 233.456 302.001 233.356 305.919C233.257 309.838 231.604 313.556 228.763 316.257Z" fill="black"/>
<path d="M204.518 318.907C201.875 316.126 200.116 312.623 199.464 308.842C198.811 305.061 199.295 301.171 200.853 297.665C202.411 294.158 204.974 291.193 208.217 289.143C211.461 287.093 215.24 286.051 219.075 286.149C222.911 286.247 226.632 287.48 229.767 289.692C232.902 291.904 235.31 294.997 236.688 298.578C238.065 302.159 238.35 306.068 237.506 309.811C236.662 313.554 234.727 316.962 231.945 319.606C228.213 323.145 223.229 325.059 218.087 324.928C212.945 324.797 208.065 322.632 204.518 318.907ZM225.96 298.53C224.574 297.071 222.785 296.055 220.821 295.612C218.857 295.169 216.805 295.319 214.926 296.042C213.047 296.764 211.424 298.028 210.264 299.673C209.103 301.318 208.456 303.271 208.404 305.284C208.353 307.296 208.9 309.279 209.976 310.981C211.051 312.683 212.607 314.028 214.447 314.846C216.287 315.663 218.328 315.917 220.312 315.575C222.296 315.232 224.134 314.309 225.594 312.922C226.563 312.001 227.341 310.898 227.884 309.677C228.427 308.455 228.724 307.138 228.758 305.802C228.792 304.466 228.562 303.136 228.082 301.888C227.602 300.64 226.881 299.499 225.96 298.53Z" fill="white"/>
<path d="M197.474 283.332C195.353 285.337 192.687 286.669 189.81 287.16C186.934 287.651 183.977 287.28 181.311 286.093C178.645 284.906 176.39 282.957 174.83 280.491C173.271 278.024 172.476 275.152 172.546 272.234C172.617 269.317 173.549 266.486 175.226 264.098C176.903 261.71 179.249 259.871 181.969 258.814C184.689 257.757 187.661 257.529 190.51 258.159C193.36 258.788 195.959 260.247 197.98 262.351C199.332 263.758 200.392 265.419 201.098 267.238C201.805 269.056 202.145 270.997 202.098 272.947C202.051 274.898 201.618 276.82 200.824 278.602C200.031 280.385 198.892 281.992 197.474 283.332Z" fill="black"/>
<path d="M173.175 285.924C170.532 283.143 168.773 279.64 168.12 275.859C167.468 272.078 167.951 268.189 169.509 264.682C171.067 261.176 173.63 258.21 176.874 256.161C180.117 254.111 183.896 253.069 187.732 253.167C191.567 253.264 195.288 254.497 198.423 256.71C201.558 258.922 203.967 262.014 205.344 265.595C206.722 269.176 207.006 273.086 206.162 276.829C205.318 280.571 203.383 283.98 200.602 286.623C196.87 290.163 191.886 292.077 186.744 291.946C181.602 291.815 176.722 289.649 173.175 285.924ZM194.617 265.548C193.23 264.088 191.441 263.073 189.477 262.63C187.513 262.187 185.462 262.336 183.583 263.059C181.704 263.782 180.081 265.046 178.92 266.691C177.759 268.336 177.112 270.288 177.061 272.301C177.01 274.314 177.556 276.297 178.632 277.999C179.708 279.701 181.264 281.046 183.104 281.863C184.944 282.681 186.985 282.935 188.969 282.592C190.953 282.25 192.791 281.327 194.25 279.94C196.203 278.077 197.337 275.517 197.406 272.819C197.475 270.122 196.472 267.507 194.617 265.548Z" fill="white"/>
<path d="M166.2 250.423C164.08 252.442 161.409 253.788 158.524 254.289C155.639 254.791 152.67 254.425 149.993 253.239C147.317 252.052 145.052 250.099 143.485 247.625C141.919 245.151 141.122 242.268 141.194 239.341C141.267 236.414 142.206 233.574 143.893 231.181C145.58 228.788 147.939 226.949 150.672 225.897C153.404 224.844 156.387 224.626 159.243 225.27C162.1 225.914 164.701 227.39 166.718 229.513C169.42 232.356 170.882 236.154 170.785 240.075C170.688 243.995 169.039 247.717 166.2 250.423Z" fill="black"/>
<path d="M141.942 253.058C139.298 250.277 137.539 246.774 136.887 242.993C136.234 239.212 136.718 235.322 138.276 231.816C139.834 228.31 142.397 225.344 145.641 223.294C148.884 221.245 152.663 220.203 156.498 220.301C160.334 220.398 164.055 221.631 167.19 223.843C170.325 226.056 172.733 229.148 174.111 232.729C175.488 236.31 175.773 240.219 174.929 243.962C174.085 247.705 172.15 251.114 169.368 253.757C165.636 257.296 160.652 259.211 155.51 259.08C150.369 258.949 145.489 256.783 141.942 253.058ZM163.384 232.682C161.997 231.222 160.208 230.207 158.244 229.764C156.28 229.321 154.229 229.47 152.349 230.193C150.47 230.916 148.848 232.18 147.687 233.825C146.526 235.47 145.879 237.422 145.828 239.435C145.776 241.448 146.323 243.43 147.399 245.132C148.474 246.835 150.03 248.179 151.87 248.997C153.71 249.815 155.751 250.068 157.735 249.726C159.719 249.384 161.557 248.461 163.017 247.074C164.969 245.211 166.104 242.651 166.173 239.953C166.241 237.256 165.239 234.641 163.384 232.682Z" fill="white"/>
</svg>
