<svg width="316" height="332" viewBox="0 0 316 332" fill="none" xmlns="http://www.w3.org/2000/svg">
<path d="M166.24 322.107C253.118 322.107 323.547 251.678 323.547 164.8C323.547 77.9219 253.118 7.49329 166.24 7.49329C79.3619 7.49329 8.93335 77.9219 8.93335 164.8C8.93335 251.678 79.3619 322.107 166.24 322.107Z" fill="black"/>
<path d="M173.44 7.49329H158.96V324.373H173.44V7.49329Z" fill="#F9E217"/>
<path d="M324.64 158.72H7.76001V173.173H324.64V158.72Z" fill="#F9E217"/>
<path d="M135.707 327.2C102.08 287.387 81.12 245.493 73.44 202.72C67.2787 168.093 69.6586 132.486 80.3733 98.9867C91.6417 63.0929 110.669 30.1179 136.107 2.40002L146.373 12.5867C122.556 38.8794 104.7 70.0072 94.0267 103.84C84.0757 135.121 81.9063 168.358 87.7067 200.667C94.9867 240.667 114.853 280.24 146.773 318L135.707 327.2Z" fill="white"/>
<path d="M198.773 327.2L187.733 317.867C219.733 280.107 239.493 240.533 246.773 200.533C252.547 168.269 250.387 135.084 240.48 103.84C229.795 70.0123 211.94 38.8869 188.133 12.5867L198.373 2.40002C223.831 30.1028 242.862 63.0827 254.107 98.9867C264.83 132.484 267.219 168.091 261.067 202.72C253.387 245.493 232.427 287.387 198.773 327.2Z" fill="white"/>
<path d="M171.147 96.6667C154.324 96.6303 137.541 95.0323 121.013 91.8934C94.3549 87.0896 68.5549 78.3638 44.4533 66.0001L51.52 53.3867C74.4244 65.0105 98.9057 73.2219 124.187 77.7601C148.384 82.3936 173.137 83.3823 197.627 80.6934C226.932 77.3754 255.247 68.0913 280.827 53.4134L288.027 65.9734C260.645 81.6773 230.33 91.5889 198.96 95.0934C189.726 96.1426 180.44 96.6678 171.147 96.6667Z" fill="#F9E217"/>
<path d="M280.907 279.92C257.992 268.299 233.502 260.088 208.213 255.547C184.016 250.913 159.263 249.924 134.773 252.613C105.471 255.942 77.1581 265.226 51.5733 279.893L44.4 267.333C71.7769 251.641 102.081 241.73 133.44 238.213C159.436 235.387 185.709 236.466 211.387 241.413C238.048 246.22 263.849 254.955 287.947 267.333L280.88 279.947L284.427 273.653L280.907 279.92Z" fill="#F9E217"/>
<path d="M166.213 331.627C127.875 331.632 90.721 318.344 61.082 294.026C31.4431 269.709 11.1531 235.866 3.66961 198.265C-3.81391 160.665 1.97201 121.632 20.0415 87.8195C38.111 54.0066 67.3459 27.5053 102.765 12.8314C138.184 -1.84248 177.595 -3.781 214.283 7.34615C250.971 18.4733 282.665 41.9776 303.966 73.8541C325.267 105.73 334.855 144.007 331.098 182.16C327.34 220.314 310.469 255.984 283.36 283.093C268.009 298.522 249.752 310.756 229.645 319.086C209.537 327.417 187.978 331.679 166.213 331.627ZM166.213 14.72C136.305 14.7147 107.066 23.5782 82.1946 40.1896C57.3232 56.801 37.9359 80.4144 26.4842 108.044C15.0326 135.673 12.0309 166.078 17.8587 195.414C23.6864 224.749 38.082 251.698 59.225 272.852C80.368 294.006 107.309 308.416 136.641 314.259C165.974 320.102 196.38 317.117 224.016 305.68C251.651 294.243 275.275 274.868 291.899 250.005C308.524 225.143 317.403 195.909 317.413 166C317.385 125.901 301.449 87.4504 273.102 59.0883C244.754 30.7262 206.313 14.7694 166.213 14.72Z" fill="white"/>
</svg>
