<?xml version="1.0" standalone="no"?>
<!DOCTYPE svg PUBLIC "-//W3C//DTD SVG 20010904//EN"
 "http://www.w3.org/TR/2001/REC-SVG-20010904/DTD/svg10.dtd">
<svg version="1.0" xmlns="http://www.w3.org/2000/svg"
 width="1024.000000pt" height="342.000000pt" viewBox="0 0 1024.000000 342.000000"
 preserveAspectRatio="xMidYMid meet">

<g transform="translate(0.000000,342.000000) scale(0.100000,-0.100000)"
fill="#16161D" stroke="none">
<path d="M10020 3268 c-118 -66 -381 -218 -585 -338 -914 -537 -1126 -658
-1468 -837 -876 -457 -1644 -708 -2462 -804 -147 -18 -605 -18 -765 -1 -181
20 -522 74 -855 137 -800 151 -1080 182 -1482 164 -318 -14 -540 -54 -818
-149 -566 -193 -1164 -522 -1518 -835 l-67 -59 0 -273 0 -273 5120 0 5120 0 0
1695 c0 932 -1 1695 -2 1695 -2 -1 -100 -55 -218 -122z"/>
</g>
</svg>
