<svg width="402" height="400" viewBox="0 0 402 400" fill="none" xmlns="http://www.w3.org/2000/svg">
<path d="M309.26 55.7C309.26 52.97 309.26 50.09 309.26 47.24C309.176 45.9631 309.359 44.6828 309.798 43.4807C310.237 42.2786 310.921 41.181 311.807 40.2581C312.693 39.3351 313.762 38.6069 314.946 38.12C316.129 37.6331 317.401 37.398 318.68 37.43C327.8 37.21 336.94 37.21 346.1 37.43C347.412 37.3963 348.717 37.639 349.93 38.1425C351.142 38.646 352.235 39.3989 353.138 40.3524C354.04 41.3059 354.732 42.4385 355.169 43.6768C355.605 44.9151 355.776 46.2313 355.67 47.54C355.67 50.27 355.67 53 355.67 55.76C361.526 55.8693 367.368 56.3604 373.16 57.23C381.295 59.0079 388.574 63.5221 393.783 70.0191C398.991 76.5161 401.814 84.603 401.78 92.93C401.78 164.31 401.78 235.68 401.78 307.04C401.8 316.56 398.107 325.713 391.485 332.553C384.864 339.393 375.836 343.381 366.32 343.67C349.07 343.97 331.82 343.67 314.27 343.67C317.48 336.02 320.51 328.67 323.81 321.29C324.17 320.48 326.24 320.09 327.53 320.09C339.53 320.09 351.32 320.09 363.2 320.09C365.164 320.274 367.145 320.032 369.008 319.382C370.87 318.732 372.571 317.688 373.994 316.321C375.417 314.955 376.53 313.298 377.255 311.464C377.981 309.629 378.303 307.66 378.2 305.69C378.2 303.95 378.2 302.21 378.2 300.47C378.2 232.43 378.2 164.39 378.2 96.47C378.2 85.61 371.6 79.58 361.76 79.82C341.63 80.33 321.44 80.06 301.28 79.82C277.28 79.82 259.28 69.14 246.77 48.59C245.06 45.59 243.5 42.77 241.76 39.92C239.029 35.0155 235.008 30.9522 230.132 28.1706C225.256 25.3889 219.712 23.995 214.1 24.14C190.88 24.14 167.69 24.14 144.47 24.14C138.487 23.8588 132.551 25.3225 127.385 28.3531C122.218 31.3837 118.044 35.8504 115.37 41.21C108.83 53.21 101.24 64.13 89.09 71.21C79.7822 76.848 69.1315 79.8836 58.25 80C37.21 80 16.21 80 -4.75001 80C-14.59 80 -20.08 85.4 -20.11 95.3C-20.11 114.32 -20.11 133.31 -20.11 152.3C-20.11 202.64 -20.11 252.98 -20.11 303.32C-20.11 313.79 -14.47 320.9 -3.19002 320.33C8.08998 319.76 19.46 320.33 30.77 320.18C31.7449 320.027 32.7413 320.253 33.5555 320.811C34.3696 321.368 34.94 322.216 35.15 323.18C37.79 330.02 40.88 336.68 44.15 343.91H37.58C23.24 343.91 8.86999 343.91 -5.50001 343.91C-10.5468 344.087 -15.5759 343.221 -20.2733 341.368C-24.9708 339.515 -29.2359 336.713 -32.8025 333.138C-36.3691 329.563 -39.1606 325.291 -41.0029 320.589C-42.8452 315.887 -43.6986 310.856 -43.51 305.81V93.74C-43.62 88.8019 -42.7309 83.8926 -40.8963 79.3067C-39.0616 74.7208 -36.3191 70.5529 -32.8336 67.0534C-29.348 63.5538 -25.1912 60.7947 -20.6127 58.9416C-16.0342 57.0886 -11.1285 56.1798 -6.19002 56.27C13.82 56.27 33.83 56.03 53.81 56.27C71.45 56.51 84.5 49.46 92.6 33.56C98.87 21.23 107.6 10.85 120.53 5.56998C127.021 2.79819 133.944 1.17407 140.99 0.769964C166.22 0.199964 191.45 0.229964 216.68 0.769964C237.02 1.06996 252.11 10.97 262.7 28.07C264.53 31.07 266.12 34.07 267.92 37.07C272.009 44.0968 278.192 49.67 285.604 53.0103C293.016 56.3506 301.287 57.291 309.26 55.7Z" fill="white"/>
<path d="M308.84 269.93C309.41 341.06 250.19 399.62 179.03 399.62C161.959 399.581 145.064 396.179 129.308 389.61C113.552 383.041 99.2438 373.433 87.201 361.335C62.8794 336.901 49.2604 303.805 49.3399 269.33C49.4195 234.854 63.1911 201.823 87.6253 177.501C112.059 153.179 145.154 139.56 179.63 139.64C250.55 140 309.71 198.56 308.84 269.93ZM285.2 269.93C285.229 248.943 279.038 228.418 267.409 210.948C255.779 193.478 239.233 179.847 219.86 171.776C200.487 163.705 179.157 161.556 158.563 165.602C137.97 169.648 119.038 179.706 104.158 194.506C89.2783 209.306 79.1188 228.185 74.9627 248.756C70.8066 269.327 72.8405 290.669 80.8075 310.085C88.7744 329.5 102.317 346.12 119.724 357.843C137.132 369.566 157.623 375.867 178.61 375.95C192.586 376.009 206.437 373.308 219.366 368C232.296 362.693 244.05 354.884 253.953 345.022C263.857 335.16 271.716 323.439 277.078 310.532C282.44 297.625 285.2 283.786 285.2 269.81V269.93Z" fill="white"/>
<path d="M179.27 56.24C188.27 56.24 197.54 56.24 206.66 56.24C208.544 56.158 210.424 56.4706 212.18 57.1579C213.935 57.8451 215.528 58.8917 216.856 60.2306C218.183 61.5695 219.217 63.1712 219.889 64.9327C220.561 66.6943 220.858 68.577 220.76 70.46C220.76 76.46 220.76 82.46 220.76 88.7C220.76 90.5108 220.403 92.3038 219.709 93.9764C219.015 95.6491 217.998 97.1684 216.716 98.4474C215.434 99.7265 213.913 100.74 212.239 101.43C210.565 102.121 208.771 102.474 206.96 102.47C188.28 102.47 169.6 102.47 150.92 102.47C149.109 102.458 147.318 102.089 145.65 101.385C143.982 100.68 142.469 99.6529 141.199 98.3627C139.928 97.0725 138.924 95.5443 138.245 93.8656C137.566 92.1869 137.224 90.3908 137.24 88.58C137.24 82.34 137.24 76.1 137.24 69.89C137.208 68.1128 137.531 66.3471 138.189 64.6959C138.847 63.0448 139.827 61.5413 141.073 60.2733C142.319 59.0054 143.804 57.9983 145.444 57.3109C147.083 56.6235 148.842 56.2697 150.62 56.27C160.16 56.27 169.73 56.27 179.27 56.27V56.24Z" fill="white"/>
<path d="M261.59 269.54C261.608 285.87 256.784 301.838 247.729 315.427C238.674 329.016 225.794 339.616 210.717 345.887C195.639 352.158 179.041 353.819 163.02 350.659C146.999 347.499 132.274 339.661 120.706 328.136C109.138 316.61 101.247 301.914 98.0293 285.904C94.8116 269.895 96.412 253.291 102.628 238.19C108.844 223.09 119.397 210.172 132.954 201.067C146.51 191.963 162.46 187.082 178.79 187.04C200.681 187.095 221.664 195.795 237.172 211.246C252.679 226.698 261.456 247.649 261.59 269.54ZM181.64 223.82C181.717 221.969 181.347 220.127 180.561 218.45C179.775 216.772 178.596 215.309 177.124 214.185C175.652 213.06 173.93 212.307 172.105 211.989C170.28 211.672 168.405 211.799 166.64 212.36C156.736 214.393 147.544 219.003 139.991 225.724C132.437 232.445 126.791 241.04 123.62 250.64C122.543 253.539 122.649 256.745 123.914 259.567C125.179 262.389 127.501 264.601 130.382 265.726C133.262 266.852 136.469 266.8 139.312 265.583C142.155 264.366 144.406 262.081 145.58 259.22C147.66 253.104 151.314 247.643 156.175 243.388C161.036 239.133 166.932 236.233 173.27 234.98C175.759 234.41 177.966 232.976 179.499 230.933C181.031 228.89 181.79 226.37 181.64 223.82Z" fill="#F9E217"/>
</svg>
