<svg version="1.1" id="Layer_1" xmlns="http://www.w3.org/2000/svg" xmlns:xlink="http://www.w3.org/1999/xlink" x="0px" y="0px"
	 width="100%" viewBox="0 0 150 150" enable-background="new 0 0 150 150" xml:space="preserve">
<path fill="#FDFDFD" opacity="1.000000" stroke="none" 
	d="
M93.000000,151.000000 
	C62.000000,151.000000 31.500000,151.000000 1.000000,151.000000 
	C1.000000,101.000000 1.000000,51.000000 1.000000,1.000000 
	C51.000000,1.000000 101.000000,1.000000 151.000000,1.000000 
	C151.000000,51.000000 151.000000,101.000000 151.000000,151.000000 
	C131.833328,151.000000 112.666664,151.000000 93.000000,151.000000 
M58.792953,100.242310 
	C61.016289,99.118454 63.308422,98.110794 65.447327,96.844360 
	C68.928635,94.783089 69.008476,91.133713 65.264839,89.657089 
	C63.424526,88.931206 60.461704,89.608337 58.602413,90.681938 
	C55.032112,92.743507 51.976650,95.677017 48.517826,97.961464 
	C47.219933,98.818665 44.669819,99.718742 43.966644,99.114449 
	C42.692440,98.019432 41.720814,95.793510 41.765850,94.069557 
	C42.042198,83.491013 51.491035,78.005852 60.712467,83.266556 
	C64.842606,85.622742 68.414513,89.013634 72.071960,92.131790 
	C83.647476,102.000496 98.634186,100.127945 107.216774,87.787811 
	C108.382355,86.111923 110.154770,84.682266 111.940041,83.643707 
	C119.592331,79.192085 123.158356,72.273567 121.991882,63.613651 
	C121.081612,56.855835 115.113655,51.001839 107.479767,48.775555 
	C104.906197,48.025021 102.321304,46.627056 100.270256,44.897903 
	C93.746437,39.397957 86.662109,37.794880 78.410278,40.172638 
	C75.775223,40.931923 72.639107,41.019096 69.971550,40.393494 
	C62.739258,38.697357 56.600975,40.061333 50.991848,45.003151 
	C48.614407,47.097759 45.738117,48.884247 42.783405,50.009502 
	C37.353531,52.077385 33.283138,55.276428 30.943140,60.676659 
	C29.161264,64.788872 27.201632,68.826431 25.241467,72.858505 
	C21.554007,80.443634 23.012547,87.777695 28.848188,93.878723 
	C31.119482,96.253311 32.925602,99.332237 34.132397,102.408554 
	C36.272186,107.863274 40.669727,110.021561 45.923996,107.345535 
	C50.069298,105.234314 54.092331,102.883034 58.792953,100.242310 
M122.793457,25.646357 
	C122.793457,21.708202 122.793457,17.770048 122.793457,13.551954 
	C120.434479,13.551954 118.720039,13.551954 116.420868,13.551954 
	C116.420868,18.046341 116.420868,22.277029 116.420868,26.817072 
	C111.899750,26.817072 107.960625,26.817072 103.886780,26.817072 
	C103.886780,28.876232 103.886780,30.608393 103.886780,32.851982 
	C108.231689,32.851982 112.293800,32.851982 116.658493,32.851982 
	C116.658493,37.479126 116.658493,41.594326 116.658493,45.927078 
	C118.729065,45.927078 120.481659,45.927078 122.747223,45.927078 
	C122.747223,41.475117 122.747223,37.242134 122.747223,32.667648 
	C127.168526,32.667648 131.087814,32.667648 135.339920,32.667648 
	C135.339920,30.594069 135.339920,28.885303 135.339920,26.533253 
	C131.186127,26.533253 127.236977,26.533253 122.793457,25.646357 
M51.101986,109.592499 
	C52.230610,113.838760 53.359234,118.085014 54.781952,123.437759 
	C61.967030,116.844017 68.423447,110.995880 74.789040,105.050484 
	C79.103142,101.021179 78.878258,99.759407 71.767395,94.974991 
	C68.097237,99.599876 64.158920,104.562683 59.798946,110.056839 
	C58.752979,107.013687 58.230679,105.494095 57.465942,103.269165 
	C55.041752,105.334785 53.006107,107.069328 51.101986,109.592499 
z"/>
<path fill="#0C0C0A" opacity="1.000000" stroke="none" 
	d="
M58.481312,100.440346 
	C54.092331,102.883034 50.069298,105.234314 45.923996,107.345535 
	C40.669727,110.021561 36.272186,107.863274 34.132397,102.408554 
	C32.925602,99.332237 31.119482,96.253311 28.848188,93.878723 
	C23.012547,87.777695 21.554007,80.443634 25.241467,72.858505 
	C27.201632,68.826431 29.161264,64.788872 30.943140,60.676659 
	C33.283138,55.276428 37.353531,52.077385 42.783405,50.009502 
	C45.738117,48.884247 48.614407,47.097759 50.991848,45.003151 
	C56.600975,40.061333 62.739258,38.697357 69.971550,40.393494 
	C72.639107,41.019096 75.775223,40.931923 78.410278,40.172638 
	C86.662109,37.794880 93.746437,39.397957 100.270256,44.897903 
	C102.321304,46.627056 104.906197,48.025021 107.479767,48.775555 
	C115.113655,51.001839 121.081612,56.855835 121.991882,63.613651 
	C123.158356,72.273567 119.592331,79.192085 111.940041,83.643707 
	C110.154770,84.682266 108.382355,86.111923 107.216774,87.787811 
	C98.634186,100.127945 83.647476,102.000496 72.071960,92.131790 
	C68.414513,89.013634 64.842606,85.622742 60.712467,83.266556 
	C51.491035,78.005852 42.042198,83.491013 41.765850,94.069557 
	C41.720814,95.793510 42.692440,98.019432 43.966644,99.114449 
	C44.669819,99.718742 47.219933,98.818665 48.517826,97.961464 
	C51.976650,95.677017 55.032112,92.743507 58.602413,90.681938 
	C60.461704,89.608337 63.424526,88.931206 65.264839,89.657089 
	C69.008476,91.133713 68.928635,94.783089 65.447327,96.844360 
	C63.308422,98.110794 61.016289,99.118454 58.481312,100.440346 
M77.607811,86.965683 
	C86.349655,93.101089 94.889442,92.426292 99.229050,84.679443 
	C96.104240,83.821793 92.967606,81.959831 90.168037,82.374352 
	C80.569519,83.795586 74.574524,79.413963 69.147888,72.151497 
	C65.329491,67.041321 60.571861,62.379391 55.456200,58.558033 
	C49.431793,54.057865 42.762939,55.816071 39.066303,62.152798 
	C47.734230,62.326069 54.155270,66.140274 58.455936,73.457428 
	C58.848392,74.125168 59.664425,74.572578 60.340366,75.040543 
	C65.892700,78.884491 71.458443,82.709076 77.607811,86.965683 
M94.315689,49.064774 
	C89.806732,45.971703 85.107399,45.036003 79.690826,47.663494 
	C83.112534,53.928692 83.722778,60.078388 80.660202,66.435204 
	C77.720909,72.536125 80.052406,75.878601 86.834343,75.275108 
	C92.629692,74.759392 96.880043,71.691864 98.917534,66.279755 
	C101.302002,59.945969 100.037460,54.202984 94.315689,49.064774 
M58.100235,48.485394 
	C57.549580,49.082714 56.998924,49.680038 56.969517,49.711937 
	C62.479313,54.722996 67.878830,59.633755 73.238693,64.508453 
	C76.272141,59.540909 76.145988,54.473457 72.787941,50.551979 
	C69.344528,46.530819 64.502312,45.655281 58.100235,48.485394 
M110.691269,57.870972 
	C109.724007,57.367920 108.756737,56.864864 108.485359,56.723724 
	C106.224136,63.910324 104.036011,70.864624 101.867271,77.757317 
	C106.741486,78.843742 110.692062,77.397881 113.479637,72.940376 
	C116.898598,67.473251 114.755424,62.795860 110.691269,57.870972 
M33.825409,73.361168 
	C30.749949,78.810638 30.753332,81.722328 33.456978,85.786659 
	C38.419155,81.570847 43.445129,77.300835 48.433907,73.062431 
	C44.231991,68.737679 40.051849,68.486786 33.825409,73.361168 
z"/>
<path fill="#141414" opacity="1.000000" stroke="none" 
	d="
M123.040642,26.089806 
	C127.236977,26.533253 131.186127,26.533253 135.339920,26.533253 
	C135.339920,28.885303 135.339920,30.594069 135.339920,32.667648 
	C131.087814,32.667648 127.168526,32.667648 122.747223,32.667648 
	C122.747223,37.242134 122.747223,41.475117 122.747223,45.927078 
	C120.481659,45.927078 118.729065,45.927078 116.658493,45.927078 
	C116.658493,41.594326 116.658493,37.479126 116.658493,32.851982 
	C112.293800,32.851982 108.231689,32.851982 103.886780,32.851982 
	C103.886780,30.608393 103.886780,28.876232 103.886780,26.817072 
	C107.960625,26.817072 111.899750,26.817072 116.420868,26.817072 
	C116.420868,22.277029 116.420868,18.046341 116.420868,13.551954 
	C118.720039,13.551954 120.434479,13.551954 122.793457,13.551954 
	C122.793457,17.770048 122.793457,21.708202 123.040642,26.089806 
z"/>
<path fill="#0E0E0E" opacity="1.000000" stroke="none" 
	d="
M51.036224,109.198189 
	C53.006107,107.069328 55.041752,105.334785 57.465942,103.269165 
	C58.230679,105.494095 58.752979,107.013687 59.798946,110.056839 
	C64.158920,104.562683 68.097237,99.599876 71.767395,94.974991 
	C78.878258,99.759407 79.103142,101.021179 74.789040,105.050484 
	C68.423447,110.995880 61.967030,116.844017 54.781952,123.437759 
	C53.359234,118.085014 52.230610,113.838760 51.036224,109.198189 
z"/>
<path fill="#E3D73E" opacity="1.000000" stroke="none" 
	d="
M77.313965,86.752609 
	C71.458443,82.709076 65.892700,78.884491 60.340366,75.040543 
	C59.664425,74.572578 58.848392,74.125168 58.455936,73.457428 
	C54.155270,66.140274 47.734230,62.326069 39.066303,62.152798 
	C42.762939,55.816071 49.431793,54.057865 55.456200,58.558033 
	C60.571861,62.379391 65.329491,67.041321 69.147888,72.151497 
	C74.574524,79.413963 80.569519,83.795586 90.168037,82.374352 
	C92.967606,81.959831 96.104240,83.821793 99.229050,84.679443 
	C94.889442,92.426292 86.349655,93.101089 77.313965,86.752609 
z"/>
<path fill="#EADE3E" opacity="1.000000" stroke="none" 
	d="
M94.601822,49.301807 
	C100.037460,54.202984 101.302002,59.945969 98.917534,66.279755 
	C96.880043,71.691864 92.629692,74.759392 86.834343,75.275108 
	C80.052406,75.878601 77.720909,72.536125 80.660202,66.435204 
	C83.722778,60.078388 83.112534,53.928692 79.690826,47.663494 
	C85.107399,45.036003 89.806732,45.971703 94.601822,49.301807 
z"/>
<path fill="#F0F0F0" opacity="1.000000" stroke="none" 
	d="
M58.443939,48.252964 
	C64.502312,45.655281 69.344528,46.530819 72.787941,50.551979 
	C76.145988,54.473457 76.272141,59.540909 73.238693,64.508453 
	C67.878830,59.633755 62.479313,54.722996 56.969517,49.711937 
	C56.998924,49.680038 57.549580,49.082714 58.443939,48.252964 
z"/>
<path fill="#F3F3F3" opacity="1.000000" stroke="none" 
	d="
M110.965561,58.115517 
	C114.755424,62.795860 116.898598,67.473251 113.479637,72.940376 
	C110.692062,77.397881 106.741486,78.843742 101.867271,77.757317 
	C104.036011,70.864624 106.224136,63.910324 108.485359,56.723724 
	C108.756737,56.864864 109.724007,57.367920 110.965561,58.115517 
z"/>
<path fill="#E4D93F" opacity="1.000000" stroke="none" 
	d="
M34.068100,73.061707 
	C40.051849,68.486786 44.231991,68.737679 48.433907,73.062431 
	C43.445129,77.300835 38.419155,81.570847 33.456978,85.786659 
	C30.753332,81.722328 30.749949,78.810638 34.068100,73.061707 
z"/>
</svg>